Coordinates
version=1
nRows=11
nColumns=40
inDegrees=yes

Units are S.I. units (second, meters, Newtons, ...)
If the header above contains a line with 'inDegrees', this indicates whether rotational values are in degrees (yes) or radians (no).

endheader
time	pelvis_tilt	pelvis_list	pelvis_rotation	pelvis_tx	pelvis_ty	pelvis_tz	hip_flexion_r	hip_adduction_r	hip_rotation_r	knee_angle_r	knee_angle_r_beta	ankle_angle_r	subtalar_angle_r	mtp_angle_r	hip_flexion_l	hip_adduction_l	hip_rotation_l	knee_angle_l	knee_angle_l_beta	ankle_angle_l	subtalar_angle_l	mtp_angle_l	lumbar_extension	lumbar_bending	lumbar_rotation	arm_flex_r	arm_add_r	arm_rot_r	elbow_flex_r	pro_sup_r	wrist_flex_r	wrist_dev_r	arm_flex_l	arm_add_l	arm_rot_l	elbow_flex_l	pro_sup_l	wrist_flex_l	wrist_dev_l
      2.90000000	      8.14237154	     -6.58428123	     -2.77566582	     -0.25815960	      1.06293444	     -1.01089197	     -0.25215793	     -3.56512723	     -2.11134456	     77.90285140	      1.35966125	    -11.82386062	      0.00000000	      0.00000000	     -2.49339651	     -2.26116343	    -10.87800764	     18.45016147	      0.32201607	     -1.64058890	      0.00000000	      0.00000000	    -12.16543488	      4.01875754	      7.01477462	     88.03228403	    -21.43711048	     53.94802898	     35.76554972	     85.66528479	      0.00000000	      0.00000000	     88.39262586	    -22.37350759	     59.92938324	     45.18235092	     86.38738574	      0.00000000	      0.00000000
      2.90500000	      8.13939658	     -6.57668450	     -2.77363914	     -0.25817595	      1.06277028	     -1.01092661	     -0.25291064	     -3.57096842	     -2.10610204	     77.91639105	      1.35989757	    -11.82645544	      0.00000000	      0.00000000	     -2.44514825	     -2.26281715	    -10.86587453	     18.53928665	      0.32357159	     -1.59557642	      0.00000000	      0.00000000	    -12.16845596	      4.00816045	      7.03323514	     88.05676174	    -21.49393569	     54.02050895	     35.79563577	     85.66325805	      0.00000000	      0.00000000	     88.40398943	    -22.33264962	     59.94244280	     45.12947177	     86.36068358	      0.00000000	      0.00000000
      2.91000000	      8.13292289	     -6.52840955	     -2.80540748	     -0.25815573	      1.06253736	     -1.01091507	     -0.23877914	     -3.63619306	     -2.07903800	     77.94355062	      1.36037159	    -11.88162663	      0.00000000	      0.00000000	     -2.39453290	     -2.21912969	    -10.90964536	     18.63889232	      0.32531004	     -1.52463776	      0.00000000	      0.00000000	    -12.16682924	      3.95599416	      7.02873062	     88.06356462	    -21.43902794	     53.96421606	     35.73387130	     85.62343872	      0.00000000	      0.00000000	     88.42055606	    -22.37855268	     59.98803520	     45.14370014	     86.42740379	      0.00000000	      0.00000000
      2.91500000	      8.10310377	     -6.52055693	     -2.79661459	     -0.25812953	      1.06228471	     -1.01095984	     -0.20719075	     -3.64854116	     -2.08819814	     77.94858973	      1.36045954	    -12.07963565	      0.00000000	      0.00000000	     -2.29304520	     -2.23159125	    -10.94113189	     18.78807925	      0.32791384	     -1.41202497	      0.00000000	      0.00000000	    -12.12950490	      3.94971614	      7.05586330	     88.14726394	    -21.55613019	     54.40508664	     35.77259108	     85.35567739	      0.00000000	      0.00000000	     88.43935639	    -22.29792144	     60.00121956	     45.04648154	     86.24411689	      0.00000000	      0.00000000
      2.92000000	      8.12439539	     -6.48481426	     -2.80008090	     -0.25803257	      1.06219744	     -1.01095269	     -0.26276130	     -3.68927647	     -2.09288719	     77.92420666	      1.36003397	    -12.04124960	      0.00000000	      0.00000000	     -2.30416580	     -2.19443560	    -10.91918309	     18.81567007	      0.32839539	     -1.41196991	      0.00000000	      0.00000000	    -12.15097758	      3.91390413	      7.03574743	     88.07748294	    -21.45014730	     53.98877410	     35.68796275	     85.57909802	      0.00000000	      0.00000000	     88.43187573	    -22.36786572	     59.95062247	     45.14091171	     86.42806890	      0.00000000	      0.00000000
      2.92500000	      8.10843678	     -6.44135308	     -2.83031903	     -0.25800492	      1.06198527	     -1.01094484	     -0.24217934	     -3.74064196	     -2.05964906	     77.95219044	      1.36052238	    -12.08964690	      0.00000000	      0.00000000	     -2.24639148	     -2.15970119	    -10.99320292	     18.91278000	      0.33009028	     -1.33726319	      0.00000000	      0.00000000	    -12.13734961	      3.86135253	      7.05124912	     88.08896515	    -21.44813396	     53.97566231	     35.68145984	     85.63177799	      0.00000000	      0.00000000	     88.44137497	    -22.38325505	     59.98776056	     45.16082600	     86.32505017	      0.00000000	      0.00000000
      2.93000000	      8.18605948	     -6.37587176	     -2.87902533	     -0.25789800	      1.06196953	     -1.01088946	     -0.33677971	     -3.81896589	     -2.00277250	     77.93716015	      1.36026005	    -12.15306911	      0.00000000	      0.00000000	     -2.32189246	     -2.09274604	    -11.09694732	     18.94243928	      0.33060793	     -1.37678159	      0.00000000	      0.00000000	    -12.21739226	      3.77356073	      7.07573650	     88.05855473	    -21.41147434	     53.84386313	     35.65211230	     85.64018571	      0.00000000	      0.00000000	     88.46437539	    -22.42721832	     60.03166188	     45.18382677	     86.39627898	      0.00000000	      0.00000000
      2.93500000	      8.14773512	     -6.37480183	     -2.90049863	     -0.25795374	      1.06175158	     -1.01086506	     -0.29513994	     -3.80962403	     -1.97123926	     77.93958805	      1.36030243	    -12.23781535	      0.00000000	      0.00000000	     -2.19599910	     -2.12317614	    -11.18246049	     19.12301466	      0.33375957	     -1.27276524	      0.00000000	      0.00000000	    -12.18677395	      3.76670938	      7.12176671	     88.11379451	    -21.50950516	     54.17068902	     35.67645244	     85.41707886	      0.00000000	      0.00000000	     88.47609090	    -22.36824295	     60.02902354	     45.11494481	     86.26131460	      0.00000000	      0.00000000
      2.94000000	      8.16314693	     -6.34532539	     -2.88443323	     -0.25782679	      1.06158665	     -1.01089714	     -0.36214341	     -3.86372207	     -2.02440301	     77.90028872	      1.35961653	    -12.19544683	      0.00000000	      0.00000000	     -2.20543658	     -2.09142295	    -11.09157776	     19.14634096	      0.33416669	     -1.23389414	      0.00000000	      0.00000000	    -12.18980010	      3.73643320	      7.09747138	     88.06955699	    -21.45447401	     53.93093271	     35.61038596	     85.61776590	      0.00000000	      0.00000000	     88.47360313	    -22.39571550	     60.02933329	     45.15503530	     86.33276498	      0.00000000	      0.00000000
      2.94500000	      8.18154912	     -6.28207312	     -2.89610641	     -0.25778974	      1.06136552	     -1.01094439	     -0.38759850	     -3.93255783	     -1.99431281	     77.94721076	      1.36043547	    -12.09511971	      0.00000000	      0.00000000	     -2.14733162	     -2.03765171	    -11.14831716	     19.29539557	      0.33676818	     -1.19521778	      0.00000000	      0.00000000	    -12.20773555	      3.66627108	      7.06868414	     88.08074622	    -21.46228365	     54.19221725	     35.67427214	     84.50201203	      0.00000000	      0.00000000	     88.60838418	    -22.49876537	     60.54470991	     45.21255155	     85.39782976	      0.00000000	      0.00000000
      2.95000000	      8.12533568	     -6.33232824	     -2.88535494	     -0.25775084	      1.06124412	     -1.01094108	     -0.34532469	     -3.88629349	     -2.02403937	     77.88595447	      1.35936635	    -12.35892198	      0.00000000	      0.00000000	     -2.03064590	     -2.12220502	    -11.16295742	     19.42717864	      0.33906823	     -1.10838731	      0.00000000	      0.00000000	    -12.14773684	      3.72462282	      7.10893444	     88.06937493	    -21.49731635	     54.02764393	     35.62182357	     85.47679411	      0.00000000	      0.00000000	     88.47030952	    -22.39981585	     60.06350233	     45.15664465	     86.30550754	      0.00000000	      0.00000000
